<svg xmlns="http://www.w3.org/2000/svg" viewBox="0 0 32 32"><defs><style>.cls-1{fill:#231f20;}</style></defs><g id="eagle"><path class="cls-1" d="M26,9H25V8.5a4.5,4.5,0,0,0-9,0V10a1,1,0,0,0,2,0V8.5a2.5,2.5,0,0,1,5,0v.66a2,2,0,0,0-1.18,1.23l-.32.94A2,2,0,0,0,23,14V15a6,6,0,0,1-3.31,5.35A12.22,12.22,0,0,0,20.48,19a4.92,4.92,0,0,0-.14-4.64,4.61,4.61,0,0,0-3.16-2.26,4.54,4.54,0,0,0-3.71.95L2.37,22.09a1,1,0,0,0,0,1.58,12.6,12.6,0,0,0,7.24,2.44A11.32,11.32,0,0,0,11.36,26c.28-.05.57-.12.85-.19l.84,2.53A1,1,0,0,0,14,29h6a1,1,0,0,0,0-2H17.82l-.74-3.71.36-.31A8,8,0,0,0,25,15V14h3a1,1,0,0,0,2,0V13A4,4,0,0,0,26,9ZM11,24A9.83,9.83,0,0,1,4.7,22.77l6.8-5.55s0,0,0,0l.51.26A1.77,1.77,0,0,1,13,19.18a1.58,1.58,0,0,1-1,1.47A4.65,4.65,0,0,1,10,21,1,1,0,0,0,10,23h.25a6.81,6.81,0,0,0,2.62-.53A3.6,3.6,0,0,0,15,19.25a3.75,3.75,0,0,0-1.83-3.39l1.56-1.28A2.55,2.55,0,0,1,16.82,14a2.63,2.63,0,0,1,1.79,1.3,2.9,2.9,0,0,1,.09,2.74,11.73,11.73,0,0,1-2.26,3.11,1.29,1.29,0,0,0-.21.19A9.84,9.84,0,0,1,11,24Zm4.74,3H14.72l-.61-1.83a11,11,0,0,0,1.18-.61ZM23.4,12l.34-1H26a2,2,0,0,1,1.73,1Z"/></g></svg>